<svg xmlns="http://www.w3.org/2000/svg" viewBox="0 0 286 64" role="img" aria-labelledby="title">
  <title id="title">AnShow</title>
  <path fill="#eef6fb" d="M7 54 27 10h10l20 44H46L32 23 18 54H7Z"/>
  <path fill="#38bdf8" d="M21 42h22l-5-9H26l-5 9Z"/>
  <circle cx="49" cy="16" r="6" fill="#f97316"/>
  <g fill="#eef6fb">
    <path fill-rule="evenodd" d="M76 50 90 14h10l14 36h-10l-3-8H89l-3 8H76Zm16-16h6l-3-10-3 10Z"/>
    <path d="M118 50V24h9v4c3-3 6-5 10-5 7 0 11 5 11 13v14h-9V37c0-4-2-6-5-6-4 0-7 3-7 8v11h-9ZM153 47l4-8c4 3 9 5 14 5 4 0 6-1 6-3 0-3-4-4-9-5-7-2-14-5-14-12 0-7 6-11 16-11 6 0 12 2 17 5l-4 8c-4-3-9-4-13-4-4 0-6 1-6 3s4 3 9 5c7 2 14 5 14 12 0 8-7 12-17 12-7 0-13-2-17-7ZM191 50V13h9v14c3-3 6-4 10-4 7 0 11 5 11 13v14h-9V37c0-4-2-6-5-6-4 0-7 3-7 8v11h-9Z"/>
    <path fill-rule="evenodd" d="M225 37c0-8 7-14 16-14s16 6 16 14-7 14-16 14-16-6-16-14Zm9 0c0 4 3 7 7 7s7-3 7-7-3-7-7-7-7 3-7 7Z"/>
    <path d="m258 24 8 26h9l5-14 5 14h9l8-26h-9l-4 15-5-15h-8l-5 15-4-15h-9Z" transform="translate(-12)"/>
  </g>
</svg>
